<svg viewBox="0 0 800 800" fill="none" xmlns="http://www.w3.org/2000/svg">
    <g id="Bicycle Stroke + wheel center fix" clip-path="url(#clip0_4_10)">
        <path id="Bike core"
            d="M380 475H165.569C163.18 475 161.749 472.344 163.063 470.35L298.333 265M380 475L298.333 265M380 475L577.774 270.083C579.612 268.179 578.262 265 575.615 265H298.333M275 205L298.333 265M641 463L561.133 191.848C560.567 189.926 562.008 188 564.011 188H649M233 205H346"
            stroke="white" stroke-width="32" stroke-linecap="round" />
        <g id="rear-wheel-group">
            <path id="Rear Wheel (Stroke)" fill-rule="evenodd" clip-rule="evenodd"
                d="M132.267 367.765C157.076 361.117 183.423 363.277 206.818 373.878C230.213 384.478 249.209 402.862 260.569 425.898C271.929 448.934 274.95 475.196 269.118 500.209C263.286 525.223 248.961 547.441 228.584 563.076C208.207 578.712 183.039 586.799 157.368 585.958C131.697 585.118 107.112 575.403 87.8009 558.468C68.4902 541.533 55.6489 518.426 51.465 493.084C47.2834 467.757 52.0083 441.763 64.8346 419.528C64.8416 419.515 64.8487 419.503 64.8558 419.491L35.4265 402.5C35.4242 402.504 35.4218 402.508 35.4195 402.512C30.0042 411.894 25.6933 421.788 22.5225 432C15.8751 453.409 14.2377 476.214 17.9369 498.62C23.4015 531.718 40.1734 561.898 65.395 584.017C90.6167 606.135 122.727 618.825 156.256 619.922C189.784 621.02 222.656 610.458 249.271 590.036C275.885 569.614 294.595 540.596 302.212 507.926C309.83 475.256 305.884 440.955 291.047 410.868C276.209 380.781 251.399 356.77 220.843 342.925C200.158 333.552 177.706 329.232 155.306 330.112C144.617 330.531 133.939 332.136 123.471 334.941L132.267 367.765Z"
                fill="white" />
        </g>
        <g id="front-wheel-group">
            <path id="Front Wheel (Stroke)" fill-rule="evenodd" clip-rule="evenodd"
                d="M755.823 503.322C749.176 528.131 734.131 549.868 713.254 564.829C692.376 579.79 666.957 587.048 641.327 585.369C615.697 583.689 591.443 573.174 572.697 555.616C553.951 538.059 541.872 514.544 538.52 489.079C535.167 463.614 540.748 437.775 554.311 415.963C567.874 394.152 588.581 377.718 612.902 369.462C637.224 361.206 663.656 361.638 687.694 370.686C711.719 379.728 731.868 396.817 744.711 419.043C744.718 419.055 744.725 419.067 744.732 419.079L774.162 402.088C774.159 402.084 774.157 402.08 774.155 402.076C768.738 392.695 762.324 384.015 755.066 376.163C739.849 359.702 720.918 346.881 699.664 338.882C668.268 327.065 633.745 326.5 601.979 337.283C570.213 348.067 543.169 369.531 525.454 398.018C507.739 426.506 500.45 460.255 504.829 493.515C509.207 526.774 524.983 557.486 549.467 580.419C573.952 603.351 605.63 617.084 639.105 619.278C672.579 621.472 705.779 611.991 733.047 592.451C751.506 579.223 766.474 561.94 776.912 542.101C781.893 532.634 785.842 522.585 788.647 512.117L755.823 503.322Z"
                fill="white" />
        </g>
    </g>
    <defs>
        <clipPath id="clip0_4_10">
            <rect width="800" height="800" fill="white" />
        </clipPath>
    </defs>
</svg>